<svg width="553" height="461" viewBox="0 0 553 461" fill="none" xmlns="http://www.w3.org/2000/svg">
<path d="M543 112.67C543 153.287 509.39 186.536 467.528 186.536C425.667 186.536 392.057 153.287 392.057 112.67C392.057 72.0535 425.667 38.8048 467.528 38.8048C509.39 38.8048 543 72.0535 543 112.67Z" fill="#EF8A17"/>
<path d="M543 112.67C543 153.287 509.39 186.536 467.528 186.536C425.667 186.536 392.057 153.287 392.057 112.67C392.057 72.0535 425.667 38.8048 467.528 38.8048C509.39 38.8048 543 72.0535 543 112.67Z" stroke="#A63A50" stroke-width="20"/>
<path d="M543 112.67C543 153.287 509.39 186.536 467.528 186.536C425.667 186.536 392.057 153.287 392.057 112.67C392.057 72.0535 425.667 38.8048 467.528 38.8048C509.39 38.8048 543 72.0535 543 112.67Z" stroke="#A63A50" stroke-width="20"/>
<path d="M367.696 51.4352C367.696 163.533 274.227 254.87 158.348 254.87C42.4689 254.87 -51 163.533 -51 51.4352C-51 -60.6631 42.4689 -152 158.348 -152C274.227 -152 367.696 -60.6631 367.696 51.4352Z" fill="#A63A50" stroke="#EF8A17" stroke-width="20"/>
<path d="M238.616 327.437C238.616 395.156 180.373 451 107.327 451C34.28 451 -23.9631 395.156 -23.9631 327.437C-23.9631 259.717 34.28 203.873 107.327 203.873C180.373 203.873 238.616 259.717 238.616 327.437Z" fill="#A63A50" stroke="#EF8A17" stroke-width="20"/>
<path d="M181.926 327.437C181.926 365.243 149.275 396.865 107.763 396.865C66.25 396.865 33.5994 365.243 33.5994 327.437C33.5994 289.63 66.25 258.009 107.763 258.009C149.275 258.009 181.926 289.63 181.926 327.437Z" fill="#6C493F" stroke="#EF8A17" stroke-width="20"/>
<path d="M48.9536 81H47.3716V44.6133H48.9536V81ZM45.7896 81H44.2075V44.6133H45.7896V81ZM42.6255 81H41.0435V44.6133H42.6255V81ZM52.1177 73.0898H68.9487V74.6719H52.1177V76.2539H68.9487V77.8359H52.1177V79.418H68.9487V81H50.5356V44.6133H68.9487V46.1953H52.1177V47.7773H68.9487V49.3594H52.1177V50.9414H68.9487V52.5234H52.1177V58.8516H60.7529V60.4336H52.1177V62.0156H60.7529V63.5977H52.1177V65.1797H60.7529V66.7617H52.1177V73.0898ZM93.0747 61.2246V81H91.4927V61.2246C91.4927 60.7998 91.4194 60.4409 91.2729 60.1479C91.1411 59.8403 90.9653 59.606 90.7456 59.4448C90.5259 59.2837 90.2329 59.1592 89.8667 59.0713C89.5151 58.9688 89.1709 58.9102 88.834 58.8955C88.4971 58.8662 88.0796 58.8516 87.5815 58.8516C87.0835 58.8516 86.666 58.8662 86.3291 58.8955C85.9922 58.9102 85.6406 58.9688 85.2744 59.0713C84.9229 59.1592 84.6372 59.2837 84.4175 59.4448C84.1978 59.606 84.0146 59.8403 83.8682 60.1479C83.7363 60.4409 83.6704 60.7998 83.6704 61.2246V81H82.0884V61.2246C82.0884 58.5879 83.9194 57.2695 87.5815 57.2695C91.2437 57.2695 93.0747 58.5879 93.0747 61.2246ZM96.2388 61.2246V81H94.6567V61.2246C94.6567 59.3643 93.9976 57.98 92.6792 57.0718C91.3755 56.1489 89.6763 55.6875 87.5815 55.6875C85.4868 55.6875 83.7803 56.1489 82.4619 57.0718C81.1582 57.98 80.5063 59.3643 80.5063 61.2246V81H78.9243V61.2246C78.9243 59.6865 79.3198 58.3682 80.1108 57.2695C80.9019 56.1709 81.9346 55.3726 83.209 54.8745C84.498 54.3618 85.9556 54.1055 87.5815 54.1055C89.2075 54.1055 90.6577 54.3618 91.9321 54.8745C93.2212 55.3726 94.2612 56.1709 95.0522 57.2695C95.8433 58.3682 96.2388 59.6865 96.2388 61.2246ZM99.4028 61.2246V81H97.8208V61.2246C97.8208 59.8477 97.5498 58.6025 97.0078 57.4893C96.4805 56.376 95.748 55.4604 94.8105 54.7427C93.873 54.0249 92.7891 53.4756 91.5586 53.0947C90.3281 52.7139 89.0024 52.5234 87.5815 52.5234C86.1606 52.5234 84.835 52.7139 83.6045 53.0947C82.374 53.4756 81.29 54.0249 80.3525 54.7427C79.415 55.4604 78.6753 56.376 78.1333 57.4893C77.606 58.6025 77.3423 59.8477 77.3423 61.2246V81H75.7603V61.2246C75.7603 59.6279 76.0679 58.1777 76.6831 56.874C77.313 55.5703 78.1626 54.4937 79.2319 53.644C80.3013 52.7798 81.5537 52.1133 82.9893 51.6445C84.4248 51.1758 85.9556 50.9414 87.5815 50.9414C89.2075 50.9414 90.7383 51.1758 92.1738 51.6445C93.6094 52.1133 94.8618 52.7798 95.9312 53.644C97.0005 54.4937 97.8428 55.5703 98.458 56.874C99.0879 58.1777 99.4028 59.6279 99.4028 61.2246ZM102.567 81H100.985V61.2246C100.985 59.6279 100.626 58.0972 99.9082 56.6323C99.2051 55.1675 98.2529 53.9077 97.0518 52.853C95.8506 51.7837 94.4224 50.9341 92.7671 50.3042C91.1118 49.6743 89.3833 49.3594 87.5815 49.3594C85.106 49.3594 82.8574 49.8281 80.8359 50.7656C78.8291 51.6885 77.2178 53.0654 76.002 54.8965C74.7861 56.7129 74.1782 58.8223 74.1782 61.2246V81H72.5962V61.2246C72.5962 59.2031 72.9917 57.3428 73.7827 55.6436C74.5737 53.9443 75.6431 52.5234 76.9907 51.3809C78.353 50.2383 79.9424 49.3521 81.7588 48.7222C83.5898 48.0923 85.5308 47.7773 87.5815 47.7773C91.2144 47.7773 94.3638 48.6929 97.0298 50.5239C99.6958 48.6929 102.845 47.7773 106.478 47.7773C108.529 47.7773 110.462 48.0923 112.279 48.7222C114.11 49.3521 115.699 50.2383 117.047 51.3809C118.409 52.5234 119.486 53.9443 120.277 55.6436C121.068 57.3428 121.463 59.2031 121.463 61.2246V81H119.881V61.2246C119.881 58.8369 119.273 56.7349 118.058 54.9185C116.842 53.0874 115.223 51.7031 113.202 50.7656C111.195 49.8281 108.954 49.3594 106.478 49.3594C103.373 49.3594 100.663 50.0918 98.3481 51.5566C98.6851 51.8496 99.0586 52.2305 99.4688 52.6992C101.476 51.5273 103.812 50.9414 106.478 50.9414C108.104 50.9414 109.635 51.1758 111.07 51.6445C112.506 52.1133 113.758 52.7798 114.828 53.644C115.897 54.4937 116.739 55.5703 117.354 56.874C117.984 58.1777 118.299 59.6279 118.299 61.2246V81H116.717V61.2246C116.717 59.8477 116.446 58.6025 115.904 57.4893C115.377 56.376 114.645 55.4604 113.707 54.7427C112.77 54.0249 111.686 53.4756 110.455 53.0947C109.225 52.7139 107.899 52.5234 106.478 52.5234C104.149 52.5234 102.135 52.9995 100.436 53.9517C100.699 54.3618 100.963 54.8159 101.227 55.314C102.662 54.5083 104.413 54.1055 106.478 54.1055C108.104 54.1055 109.554 54.3618 110.829 54.8745C112.118 55.3726 113.158 56.1709 113.949 57.2695C114.74 58.3682 115.135 59.6865 115.135 61.2246V81H113.553V61.2246C113.553 59.3643 112.894 57.98 111.576 57.0718C110.272 56.1489 108.573 55.6875 106.478 55.6875C104.574 55.6875 103.028 56.0391 101.842 56.7422C102.032 57.2988 102.179 57.8262 102.281 58.3242C103.204 57.6211 104.603 57.2695 106.478 57.2695C110.14 57.2695 111.971 58.5879 111.971 61.2246V81H110.389V61.2246C110.389 60.7998 110.316 60.4409 110.169 60.1479C110.038 59.8403 109.862 59.606 109.642 59.4448C109.422 59.2837 109.129 59.1592 108.763 59.0713C108.412 58.9688 108.067 58.9102 107.73 58.8955C107.394 58.8662 106.976 58.8516 106.478 58.8516C105.98 58.8516 105.562 58.8662 105.226 58.8955C104.889 58.9102 104.537 58.9688 104.171 59.0713C103.819 59.1592 103.534 59.2837 103.314 59.4448C103.094 59.606 102.911 59.8403 102.765 60.1479C102.633 60.4409 102.567 60.7998 102.567 61.2246V81ZM145.633 61.2246V81H144.051V61.2246C144.051 60.7998 143.978 60.4409 143.832 60.1479C143.7 59.8403 143.524 59.606 143.304 59.4448C143.084 59.2837 142.792 59.1592 142.425 59.0713C142.074 58.9688 141.729 58.9102 141.393 58.8955C141.056 58.8662 140.638 58.8516 140.14 58.8516C139.642 58.8516 139.225 58.8662 138.888 58.8955C138.551 58.9102 138.199 58.9688 137.833 59.0713C137.481 59.1592 137.196 59.2837 136.976 59.4448C136.756 59.606 136.573 59.8403 136.427 60.1479C136.295 60.4409 136.229 60.7998 136.229 61.2246V81H134.647V61.2246C134.647 58.5879 136.478 57.2695 140.14 57.2695C143.802 57.2695 145.633 58.5879 145.633 61.2246ZM148.797 61.2246V81H147.215V61.2246C147.215 59.3643 146.556 57.98 145.238 57.0718C143.934 56.1489 142.235 55.6875 140.14 55.6875C138.045 55.6875 136.339 56.1489 135.021 57.0718C133.717 57.98 133.065 59.3643 133.065 61.2246V81H131.483V61.2246C131.483 59.6865 131.878 58.3682 132.669 57.2695C133.46 56.1709 134.493 55.3726 135.768 54.8745C137.057 54.3618 138.514 54.1055 140.14 54.1055C141.766 54.1055 143.216 54.3618 144.491 54.8745C145.78 55.3726 146.82 56.1709 147.611 57.2695C148.402 58.3682 148.797 59.6865 148.797 61.2246ZM151.961 61.2246V81H150.379V61.2246C150.379 59.8477 150.108 58.6025 149.566 57.4893C149.039 56.376 148.307 55.4604 147.369 54.7427C146.432 54.0249 145.348 53.4756 144.117 53.0947C142.887 52.7139 141.561 52.5234 140.14 52.5234C138.719 52.5234 137.394 52.7139 136.163 53.0947C134.933 53.4756 133.849 54.0249 132.911 54.7427C131.974 55.4604 131.234 56.376 130.692 57.4893C130.165 58.6025 129.901 59.8477 129.901 61.2246V81H128.319V61.2246C128.319 59.6279 128.626 58.1777 129.242 56.874C129.872 55.5703 130.721 54.4937 131.791 53.644C132.86 52.7798 134.112 52.1133 135.548 51.6445C136.983 51.1758 138.514 50.9414 140.14 50.9414C141.766 50.9414 143.297 51.1758 144.732 51.6445C146.168 52.1133 147.42 52.7798 148.49 53.644C149.559 54.4937 150.401 55.5703 151.017 56.874C151.646 58.1777 151.961 59.6279 151.961 61.2246ZM155.125 81H153.543V61.2246C153.543 59.6279 153.185 58.0972 152.467 56.6323C151.764 55.1675 150.812 53.9077 149.61 52.853C148.409 51.7837 146.981 50.9341 145.326 50.3042C143.67 49.6743 141.942 49.3594 140.14 49.3594C137.665 49.3594 135.416 49.8281 133.395 50.7656C131.388 51.6885 129.776 53.0654 128.561 54.8965C127.345 56.7129 126.737 58.8223 126.737 61.2246V81H125.155V61.2246C125.155 59.2031 125.55 57.3428 126.341 55.6436C127.132 53.9443 128.202 52.5234 129.549 51.3809C130.912 50.2383 132.501 49.3521 134.317 48.7222C136.148 48.0923 138.089 47.7773 140.14 47.7773C143.773 47.7773 146.922 48.6929 149.588 50.5239C152.254 48.6929 155.404 47.7773 159.037 47.7773C161.087 47.7773 163.021 48.0923 164.837 48.7222C166.668 49.3521 168.258 50.2383 169.605 51.3809C170.968 52.5234 172.044 53.9443 172.835 55.6436C173.626 57.3428 174.022 59.2031 174.022 61.2246V81H172.44V61.2246C172.44 58.8369 171.832 56.7349 170.616 54.9185C169.4 53.0874 167.782 51.7031 165.76 50.7656C163.753 49.8281 161.512 49.3594 159.037 49.3594C155.931 49.3594 153.221 50.0918 150.907 51.5566C151.244 51.8496 151.617 52.2305 152.027 52.6992C154.034 51.5273 156.371 50.9414 159.037 50.9414C160.663 50.9414 162.193 51.1758 163.629 51.6445C165.064 52.1133 166.317 52.7798 167.386 53.644C168.456 54.4937 169.298 55.5703 169.913 56.874C170.543 58.1777 170.858 59.6279 170.858 61.2246V81H169.276V61.2246C169.276 59.8477 169.005 58.6025 168.463 57.4893C167.936 56.376 167.203 55.4604 166.266 54.7427C165.328 54.0249 164.244 53.4756 163.014 53.0947C161.783 52.7139 160.458 52.5234 159.037 52.5234C156.708 52.5234 154.693 52.9995 152.994 53.9517C153.258 54.3618 153.521 54.8159 153.785 55.314C155.221 54.5083 156.971 54.1055 159.037 54.1055C160.663 54.1055 162.113 54.3618 163.387 54.8745C164.676 55.3726 165.716 56.1709 166.507 57.2695C167.298 58.3682 167.694 59.6865 167.694 61.2246V81H166.112V61.2246C166.112 59.3643 165.453 57.98 164.134 57.0718C162.831 56.1489 161.131 55.6875 159.037 55.6875C157.132 55.6875 155.587 56.0391 154.4 56.7422C154.591 57.2988 154.737 57.8262 154.84 58.3242C155.763 57.6211 157.162 57.2695 159.037 57.2695C162.699 57.2695 164.53 58.5879 164.53 61.2246V81H162.948V61.2246C162.948 60.7998 162.875 60.4409 162.728 60.1479C162.596 59.8403 162.42 59.606 162.201 59.4448C161.981 59.2837 161.688 59.1592 161.322 59.0713C160.97 58.9688 160.626 58.9102 160.289 58.8955C159.952 58.8662 159.535 58.8516 159.037 58.8516C158.539 58.8516 158.121 58.8662 157.784 58.8955C157.447 58.9102 157.096 58.9688 156.729 59.0713C156.378 59.1592 156.092 59.2837 155.873 59.4448C155.653 59.606 155.47 59.8403 155.323 60.1479C155.191 60.4409 155.125 60.7998 155.125 61.2246V81ZM200.433 65.3994C200.433 63.5244 199.854 62.0742 198.697 61.0488C197.54 60.0234 196.009 59.5107 194.105 59.5107C192.494 59.5107 191.109 60.0674 189.952 61.1807C188.795 62.2939 188.216 63.627 188.216 65.1797C188.216 66.0586 188.333 66.8496 188.568 67.5527C188.802 68.2412 189.117 68.8198 189.513 69.2886C189.923 69.7427 190.406 70.1235 190.963 70.4312C191.52 70.7241 192.098 70.9365 192.699 71.0684C193.314 71.2002 193.966 71.2661 194.654 71.2661C196.324 71.2661 197.848 70.856 199.225 70.0356V71.6177C197.804 72.3647 196.273 72.7383 194.632 72.7383C193.578 72.7383 192.582 72.5991 191.644 72.3208C190.721 72.0278 189.879 71.5957 189.117 71.0244C188.355 70.4385 187.748 69.6475 187.293 68.6514C186.854 67.6406 186.634 66.4834 186.634 65.1797C186.634 63.1582 187.345 61.4443 188.766 60.0381C190.187 58.6318 191.966 57.9287 194.105 57.9287C196.463 57.9287 198.368 58.5952 199.818 59.9282C201.283 61.2466 202.015 63.0703 202.015 65.3994V81H200.433V65.3994ZM205.179 65.3994V81H203.597V65.3994C203.597 62.6309 202.711 60.4336 200.938 58.8076C199.166 57.167 196.888 56.3467 194.105 56.3467C191.527 56.3467 189.374 57.2036 187.645 58.9175C185.917 60.6313 185.052 62.7188 185.052 65.1797C185.052 66.6738 185.309 68.0142 185.821 69.2007C186.349 70.3872 187.059 71.3394 187.953 72.0571C188.846 72.7749 189.842 73.3242 190.941 73.7051C192.054 74.0713 193.226 74.2544 194.457 74.2544C196.126 74.2544 197.716 73.8662 199.225 73.0898V74.7598C197.643 75.4189 196.046 75.7485 194.435 75.7485C192.984 75.7485 191.607 75.5288 190.304 75.0894C189 74.6353 187.835 73.9834 186.81 73.1338C185.785 72.2695 184.972 71.1562 184.371 69.7939C183.771 68.417 183.47 66.8789 183.47 65.1797C183.47 62.2939 184.488 59.8403 186.524 57.8188C188.575 55.7827 191.102 54.7646 194.105 54.7646C196.214 54.7646 198.104 55.1968 199.774 56.061C201.444 56.9106 202.762 58.1484 203.729 59.7744C204.696 61.4004 205.179 63.2754 205.179 65.3994ZM208.343 65.3994V81H206.761V65.3994C206.761 62.9824 206.205 60.8438 205.091 58.9834C203.993 57.1084 202.484 55.6729 200.565 54.6768C198.646 53.6807 196.493 53.1826 194.105 53.1826C191.834 53.1826 189.762 53.7246 187.887 54.8086C186.012 55.8779 184.54 57.3281 183.47 59.1592C182.416 60.9902 181.888 62.9971 181.888 65.1797C181.888 67.0547 182.232 68.7686 182.921 70.3213C183.609 71.8594 184.532 73.1265 185.689 74.1226C186.861 75.1187 188.187 75.895 189.667 76.4517C191.161 76.9937 192.721 77.2646 194.347 77.2646C196.002 77.2646 197.628 76.9204 199.225 76.2319V77.8359C197.555 78.4658 195.914 78.7808 194.303 78.7808C191.769 78.7808 189.439 78.2095 187.315 77.0669C185.191 75.9243 183.492 74.3057 182.218 72.2109C180.943 70.1162 180.306 67.7725 180.306 65.1797C180.306 63.334 180.658 61.5762 181.361 59.9062C182.079 58.2363 183.045 56.7935 184.261 55.5776C185.477 54.3618 186.942 53.395 188.656 52.6772C190.37 51.9595 192.186 51.6006 194.105 51.6006C196.786 51.6006 199.203 52.1719 201.356 53.3145C203.524 54.457 205.23 56.083 206.476 58.1924C207.721 60.3018 208.343 62.7041 208.343 65.3994ZM211.507 65.3994V81H209.925V65.3994C209.925 62.4111 209.229 59.7451 207.838 57.4014C206.446 55.043 204.549 53.2266 202.147 51.9521C199.745 50.6631 197.064 50.0186 194.105 50.0186C191.263 50.0186 188.663 50.6997 186.305 52.062C183.946 53.4243 182.093 55.27 180.746 57.5991C179.398 59.9136 178.724 62.4404 178.724 65.1797C178.724 66.9814 179.01 68.6953 179.581 70.3213C180.167 71.9326 180.958 73.3462 181.954 74.562C182.965 75.7632 184.122 76.8032 185.426 77.6821C186.744 78.561 188.158 79.2275 189.667 79.6816C191.19 80.1357 192.735 80.3628 194.303 80.3628C196.031 80.3628 197.672 80.0332 199.225 79.374V81C197.599 81.5713 195.929 81.8569 194.215 81.8569C192.442 81.8569 190.714 81.6079 189.029 81.1099C187.359 80.6118 185.807 79.8794 184.371 78.9126C182.95 77.9312 181.698 76.7812 180.614 75.4629C179.53 74.1299 178.68 72.5771 178.065 70.8047C177.45 69.0322 177.142 67.1572 177.142 65.1797C177.142 62.9092 177.567 60.7485 178.417 58.6978C179.281 56.6323 180.453 54.8525 181.932 53.3584C183.426 51.8496 185.228 50.6558 187.337 49.7769C189.461 48.8833 191.717 48.4365 194.105 48.4365C196.537 48.4365 198.822 48.8467 200.96 49.667C203.099 50.4873 204.945 51.6299 206.498 53.0947C208.05 54.5449 209.273 56.332 210.167 58.4561C211.061 60.5801 211.507 62.8945 211.507 65.3994ZM215.418 49.3594H217V81H215.418V49.3594ZM224.911 49.3594H226.493V73.0898H238.16V74.6719H226.493V76.2539H238.16V77.8359H226.493V79.418H238.16V81H224.911V49.3594ZM221.747 49.3594H223.329V81H221.747V49.3594ZM218.583 49.3594H220.165V81H218.583V49.3594ZM251.146 49.3594H252.728V81H251.146V49.3594ZM247.982 49.3594H249.564V81H247.982V49.3594ZM244.818 49.3594H246.4V81H244.818V49.3594ZM241.654 49.3594H243.236V81H241.654V49.3594ZM281.82 68.2339L280.238 65.3555V49.3594H281.82V68.2339ZM284.984 73.7051L283.402 71.0244V49.3594H284.984V73.7051ZM263.187 62.1255L264.769 65.0039V81H263.187V62.1255ZM260.023 56.4346L261.605 59.335V81H260.023V56.4346ZM260.572 49.3594H262.418L280.743 81H278.897L260.572 49.3594ZM264.308 49.3594H266.175L284.479 81H282.589L264.308 49.3594ZM268.021 49.3594H269.867L286.566 78.2534V49.3594H288.148V81H286.28L268.021 49.3594ZM258.441 52.084V81H256.859V49.3594H258.749L277.008 81H275.184L258.441 52.084ZM300.189 81H298.607V49.3594H300.189V81ZM297.025 81H295.443V49.3594H297.025V81ZM293.861 81H292.279V49.3594H293.861V81ZM303.353 73.0898H318.492V74.6719H303.353V76.2539H318.492V77.8359H303.353V79.418H318.492V81H301.771V49.3594H318.492V50.9414H303.353V52.5234H318.492V54.1055H303.353V55.6875H318.492V57.2695H303.353V61.2026H317.613V62.7847H303.353V64.3667H317.613V65.9487H303.353V67.5308H317.613V69.1128H303.353V73.0898ZM67.2349 137.729L68.8169 134.74V151H67.2349V137.729ZM70.3989 131.664L71.981 128.676V151H70.3989V131.664ZM73.563 125.688L75.145 122.677V151H73.563V125.688ZM62.9502 136.981L62.0493 135.333L72.9478 114.613H74.7275L62.9502 136.981ZM61.1265 133.532L60.2036 131.862L69.3442 114.613H71.146L61.1265 133.532ZM50.5356 134.916L52.1177 137.904V151H50.5356V134.916ZM47.3716 128.896L48.9536 131.884V151H47.3716V128.896ZM44.2075 122.875L45.7896 125.885V151H44.2075V122.875ZM56.9956 141.508H55.2158L42.6255 117.624V151H41.0435V114.613H42.8232L56.9956 141.508ZM60.5771 141.508H58.7754L44.625 114.613H46.4268L60.5771 141.508ZM76.7271 117.624L64.1367 141.508H62.335L48.2065 114.613H49.9863L63.2578 139.838L76.5073 114.613H78.3091V151H76.7271V117.624ZM90.394 151H88.812V119.359H90.394V151ZM87.23 151H85.6479V119.359H87.23V151ZM84.0659 151H82.4839V119.359H84.0659V151ZM93.5581 143.09H108.697V144.672H93.5581V146.254H108.697V147.836H93.5581V149.418H108.697V151H91.9761V119.359H108.697V120.941H93.5581V122.523H108.697V124.105H93.5581V125.688H108.697V127.27H93.5581V131.203H107.818V132.785H93.5581V134.367H107.818V135.949H93.5581V137.531H107.818V139.113H93.5581V143.09ZM124.452 135.883H133.988C135.248 135.883 136.317 135.487 137.196 134.696C138.075 133.905 138.514 132.792 138.514 131.356C138.514 130.302 138.053 129.357 137.13 128.522C136.222 127.687 135.174 127.27 133.988 127.27H120.409V151H118.827V125.688H133.988C135.614 125.688 137.035 126.259 138.25 127.401C139.481 128.544 140.096 129.862 140.096 131.356C140.096 133.217 139.503 134.704 138.316 135.817C137.13 136.916 135.687 137.465 133.988 137.465H124.452V135.883ZM124.452 139.047H133.988C136.097 139.047 137.906 138.329 139.415 136.894C140.924 135.458 141.678 133.612 141.678 131.356C141.678 129.438 140.909 127.753 139.371 126.303C137.833 124.838 136.039 124.105 133.988 124.105H117.245V151H115.663V122.523H133.988C136.478 122.523 138.646 123.41 140.492 125.182C142.337 126.94 143.26 128.998 143.26 131.356C143.26 133.993 142.345 136.198 140.514 137.97C138.697 139.743 136.522 140.629 133.988 140.629H124.452V139.047ZM124.452 142.211H133.988C135.936 142.211 137.738 141.742 139.393 140.805C141.048 139.867 142.367 138.563 143.348 136.894C144.344 135.224 144.842 133.378 144.842 131.356C144.842 129.525 144.352 127.812 143.37 126.215C142.389 124.604 141.056 123.322 139.371 122.37C137.701 121.417 135.907 120.941 133.988 120.941H114.081V151H112.499V119.359H133.988C135.643 119.359 137.232 119.689 138.756 120.348C140.294 120.993 141.62 121.857 142.733 122.941C143.846 124.01 144.74 125.285 145.414 126.764C146.087 128.244 146.424 129.774 146.424 131.356C146.424 133.92 145.838 136.161 144.667 138.08C143.495 139.984 141.92 141.435 139.942 142.431L143.26 151H141.568L138.426 143.068C138.031 143.2 137.569 143.332 137.042 143.463L140.008 151H138.316L135.416 143.727C134.962 143.771 134.486 143.793 133.988 143.793L136.778 151H135.108L132.34 143.793H130.912L133.57 151H131.9L129.22 143.793H124.452V142.211ZM123.573 151H121.991V128.852H133.988C134.808 128.852 135.504 129.101 136.075 129.599C136.646 130.082 136.932 130.668 136.932 131.356C136.932 133.319 135.951 134.301 133.988 134.301H124.452V132.719H133.988C134.896 132.719 135.35 132.265 135.35 131.356C135.35 131.107 135.211 130.895 134.933 130.719C134.669 130.529 134.354 130.434 133.988 130.434H123.573V151ZM172.704 130.258L171.429 131.225C170.155 129.643 168.514 128.852 166.507 128.852C164.764 128.852 163.27 129.474 162.025 130.719C160.794 131.95 160.179 133.437 160.179 135.18C160.179 136.923 160.794 138.417 162.025 139.662C163.27 140.893 164.764 141.508 166.507 141.508C167.489 141.508 168.404 141.295 169.254 140.871C170.118 140.446 170.851 139.86 171.451 139.113L172.682 140.146C171.949 141.068 171.041 141.793 169.957 142.321C168.873 142.833 167.723 143.09 166.507 143.09C164.325 143.09 162.457 142.321 160.904 140.783C159.366 139.23 158.597 137.362 158.597 135.18C158.597 132.997 159.366 131.137 160.904 129.599C162.457 128.046 164.325 127.27 166.507 127.27C167.738 127.27 168.895 127.541 169.979 128.083C171.063 128.61 171.971 129.335 172.704 130.258ZM175.165 128.28L173.912 129.247C173.033 128.134 171.942 127.262 170.638 126.632C169.349 126.002 167.972 125.688 166.507 125.688C163.885 125.688 161.644 126.618 159.784 128.478C157.938 130.338 157.015 132.572 157.015 135.18C157.015 137.787 157.938 140.021 159.784 141.881C161.644 143.742 163.885 144.672 166.507 144.672C167.972 144.672 169.356 144.357 170.66 143.727C171.964 143.083 173.055 142.204 173.934 141.09L175.143 142.101C174.117 143.39 172.85 144.408 171.341 145.155C169.833 145.888 168.221 146.254 166.507 146.254C164.5 146.254 162.647 145.763 160.948 144.782C159.249 143.786 157.901 142.438 156.905 140.739C155.924 139.04 155.433 137.187 155.433 135.18C155.433 133.173 155.924 131.32 156.905 129.621C157.901 127.921 159.249 126.581 160.948 125.6C162.647 124.604 164.5 124.105 166.507 124.105C168.221 124.105 169.833 124.479 171.341 125.226C172.865 125.958 174.139 126.977 175.165 128.28ZM177.647 126.303L176.417 127.292C175.23 125.812 173.773 124.647 172.044 123.798C170.316 122.948 168.47 122.523 166.507 122.523C164.793 122.523 163.153 122.86 161.585 123.534C160.033 124.193 158.685 125.094 157.542 126.237C156.415 127.365 155.514 128.712 154.84 130.28C154.181 131.833 153.851 133.466 153.851 135.18C153.851 136.894 154.181 138.534 154.84 140.102C155.514 141.654 156.415 143.002 157.542 144.145C158.685 145.272 160.033 146.173 161.585 146.847C163.153 147.506 164.793 147.836 166.507 147.836C168.47 147.836 170.316 147.411 172.044 146.562C173.773 145.712 175.23 144.547 176.417 143.068L177.604 144.101C176.271 145.756 174.637 147.06 172.704 148.012C170.77 148.949 168.705 149.418 166.507 149.418C164.574 149.418 162.728 149.044 160.97 148.297C159.212 147.536 157.696 146.525 156.422 145.265C155.162 143.991 154.151 142.475 153.39 140.717C152.643 138.959 152.269 137.113 152.269 135.18C152.269 133.246 152.643 131.4 153.39 129.643C154.151 127.885 155.162 126.376 156.422 125.116C157.696 123.842 159.212 122.831 160.97 122.084C162.728 121.322 164.574 120.941 166.507 120.941C168.719 120.941 170.792 121.417 172.726 122.37C174.674 123.322 176.314 124.633 177.647 126.303ZM180.108 124.325L178.834 125.27C177.354 123.439 175.538 121.996 173.385 120.941C171.246 119.887 168.954 119.359 166.507 119.359C164.369 119.359 162.318 119.777 160.355 120.612C158.407 121.447 156.722 122.575 155.301 123.996C153.895 125.402 152.774 127.086 151.939 129.049C151.104 130.998 150.687 133.041 150.687 135.18C150.687 137.318 151.104 139.369 151.939 141.332C152.774 143.28 153.895 144.965 155.301 146.386C156.722 147.792 158.407 148.913 160.355 149.748C162.318 150.583 164.369 151 166.507 151C168.954 151 171.246 150.473 173.385 149.418C175.538 148.363 177.354 146.92 178.834 145.089L180.086 146.056C178.46 148.078 176.461 149.674 174.088 150.846C171.729 152.003 169.203 152.582 166.507 152.582C164.149 152.582 161.893 152.121 159.74 151.198C157.601 150.275 155.755 149.037 154.203 147.484C152.65 145.932 151.412 144.086 150.489 141.947C149.566 139.794 149.105 137.538 149.105 135.18C149.105 132.821 149.566 130.573 150.489 128.434C151.412 126.281 152.65 124.428 154.203 122.875C155.755 121.322 157.601 120.084 159.74 119.162C161.893 118.239 164.149 117.777 166.507 117.777C169.203 117.777 171.737 118.363 174.11 119.535C176.483 120.692 178.482 122.289 180.108 124.325ZM191.029 151H189.447V119.359H191.029V151ZM187.865 151H186.283V119.359H187.865V151ZM184.701 151H183.119V119.359H184.701V151ZM194.193 143.09H209.332V144.672H194.193V146.254H209.332V147.836H194.193V149.418H209.332V151H192.611V119.359H209.332V120.941H194.193V122.523H209.332V124.105H194.193V125.688H209.332V127.27H194.193V131.203H208.453V132.785H194.193V134.367H208.453V135.949H194.193V137.531H208.453V139.113H194.193V143.09ZM225.086 135.883H234.623C235.882 135.883 236.952 135.487 237.831 134.696C238.709 133.905 239.149 132.792 239.149 131.356C239.149 130.302 238.688 129.357 237.765 128.522C236.856 127.687 235.809 127.27 234.623 127.27H221.043V151H219.461V125.688H234.623C236.249 125.688 237.669 126.259 238.885 127.401C240.116 128.544 240.731 129.862 240.731 131.356C240.731 133.217 240.138 134.704 238.951 135.817C237.765 136.916 236.322 137.465 234.623 137.465H225.086V135.883ZM225.086 139.047H234.623C236.732 139.047 238.541 138.329 240.05 136.894C241.559 135.458 242.313 133.612 242.313 131.356C242.313 129.438 241.544 127.753 240.006 126.303C238.468 124.838 236.673 124.105 234.623 124.105H217.879V151H216.297V122.523H234.623C237.113 122.523 239.281 123.41 241.126 125.182C242.972 126.94 243.895 128.998 243.895 131.356C243.895 133.993 242.979 136.198 241.148 137.97C239.332 139.743 237.157 140.629 234.623 140.629H225.086V139.047ZM225.086 142.211H234.623C236.571 142.211 238.373 141.742 240.028 140.805C241.683 139.867 243.001 138.563 243.983 136.894C244.979 135.224 245.477 133.378 245.477 131.356C245.477 129.525 244.986 127.812 244.005 126.215C243.023 124.604 241.69 123.322 240.006 122.37C238.336 121.417 236.542 120.941 234.623 120.941H214.715V151H213.133V119.359H234.623C236.278 119.359 237.867 119.689 239.391 120.348C240.929 120.993 242.254 121.857 243.368 122.941C244.481 124.01 245.375 125.285 246.048 126.764C246.722 128.244 247.059 129.774 247.059 131.356C247.059 133.92 246.473 136.161 245.301 138.08C244.129 139.984 242.555 141.435 240.577 142.431L243.895 151H242.203L239.061 143.068C238.666 143.2 238.204 143.332 237.677 143.463L240.643 151H238.951L236.051 143.727C235.597 143.771 235.121 143.793 234.623 143.793L237.413 151H235.743L232.975 143.793H231.546L234.205 151H232.535L229.854 143.793H225.086V142.211ZM224.208 151H222.625V128.852H234.623C235.443 128.852 236.139 129.101 236.71 129.599C237.281 130.082 237.567 130.668 237.567 131.356C237.567 133.319 236.585 134.301 234.623 134.301H225.086V132.719H234.623C235.531 132.719 235.985 132.265 235.985 131.356C235.985 131.107 235.846 130.895 235.567 130.719C235.304 130.529 234.989 130.434 234.623 130.434H224.208V151Z" fill="white"/>
<path d="M369.23 237.671C369.23 274.828 337.465 305.768 297.247 305.768C257.029 305.768 225.264 274.828 225.264 237.671C225.264 200.514 257.029 169.574 297.247 169.574C337.465 169.574 369.23 200.514 369.23 237.671Z" fill="#F8F1D7" stroke="#EF8A17" stroke-width="20"/>
<path d="M455.574 167.118C455.574 188.472 438.607 205.484 418.041 205.484C397.476 205.484 380.509 188.472 380.509 167.118C380.509 145.763 397.476 128.751 418.041 128.751C438.607 128.751 455.574 145.763 455.574 167.118Z" fill="#F8F1D7" stroke="#6C493F" stroke-width="20"/>
<path d="M479.529 38.4352C479.529 58.7758 462.738 75.265 442.026 75.265C421.314 75.265 404.523 58.7758 404.523 38.4352C404.523 18.0947 421.314 1.60547 442.026 1.60547C462.738 1.60547 479.529 18.0947 479.529 38.4352Z" fill="#A63A50"/>
<path d="M324.75 238.115C324.75 252.872 312.692 264.944 297.683 264.944C282.674 264.944 270.616 252.872 270.616 238.115C270.616 223.357 282.674 211.285 297.683 211.285C312.692 211.285 324.75 223.357 324.75 238.115Z" fill="#EF8A17" stroke="#A63A50" stroke-width="20"/>
<path d="M467.051 209.618C467.051 223.78 455.609 235.235 441.526 235.235C427.443 235.235 416 223.78 416 209.618C416 195.455 427.443 184 441.526 184C455.609 184 467.051 195.455 467.051 209.618Z" fill="#EF8A17" stroke="#A63A50" stroke-width="10"/>
<path d="M242.767 393.865C242.767 417.882 222.424 438 196.513 438C170.602 438 150.259 417.882 150.259 393.865C150.259 369.848 170.602 349.729 196.513 349.729C222.424 349.729 242.767 369.848 242.767 393.865Z" fill="#EF8A17" stroke="#F8F1D7" stroke-width="20"/>
</svg>
