<svg width="925" height="651" viewBox="0 0 925 651" fill="none" xmlns="http://www.w3.org/2000/svg">
<path d="M604 274.67C604 315.287 570.39 348.536 528.528 348.536C486.667 348.536 453.057 315.287 453.057 274.67C453.057 234.053 486.667 200.805 528.528 200.805C570.39 200.805 604 234.053 604 274.67Z" fill="#EF8A17"/>
<path d="M604 274.67C604 315.287 570.39 348.536 528.528 348.536C486.667 348.536 453.057 315.287 453.057 274.67C453.057 234.053 486.667 200.805 528.528 200.805C570.39 200.805 604 234.053 604 274.67Z" stroke="#A63A50" stroke-width="20"/>
<path d="M604 274.67C604 315.287 570.39 348.536 528.528 348.536C486.667 348.536 453.057 315.287 453.057 274.67C453.057 234.053 486.667 200.805 528.528 200.805C570.39 200.805 604 234.053 604 274.67Z" stroke="#A63A50" stroke-width="20"/>
<path d="M428.696 213.435C428.696 325.533 335.227 416.87 219.348 416.87C103.469 416.87 10 325.533 10 213.435C10 101.337 103.469 10 219.348 10C335.227 10 428.696 101.337 428.696 213.435Z" fill="#A63A50" stroke="#EF8A17" stroke-width="20"/>
<path d="M299.616 489.437C299.616 557.156 241.373 613 168.327 613C95.28 613 37.0369 557.156 37.0369 489.437C37.0369 421.717 95.28 365.873 168.327 365.873C241.373 365.873 299.616 421.717 299.616 489.437Z" fill="#A63A50" stroke="#EF8A17" stroke-width="20"/>
<path d="M242.926 489.437C242.926 527.243 210.275 558.865 168.763 558.865C127.25 558.865 94.5994 527.243 94.5994 489.437C94.5994 451.63 127.25 420.009 168.763 420.009C210.275 420.009 242.926 451.63 242.926 489.437Z" fill="#6C493F" stroke="#EF8A17" stroke-width="20"/>
<path d="M109.954 243H108.372V206.613H109.954V243ZM106.79 243H105.208V206.613H106.79V243ZM103.625 243H102.043V206.613H103.625V243ZM113.118 235.09H129.949V236.672H113.118V238.254H129.949V239.836H113.118V241.418H129.949V243H111.536V206.613H129.949V208.195H113.118V209.777H129.949V211.359H113.118V212.941H129.949V214.523H113.118V220.852H121.753V222.434H113.118V224.016H121.753V225.598H113.118V227.18H121.753V228.762H113.118V235.09ZM154.075 223.225V243H152.493V223.225C152.493 222.8 152.419 222.441 152.273 222.148C152.141 221.84 151.965 221.606 151.746 221.445C151.526 221.284 151.233 221.159 150.867 221.071C150.515 220.969 150.171 220.91 149.834 220.896C149.497 220.866 149.08 220.852 148.582 220.852C148.083 220.852 147.666 220.866 147.329 220.896C146.992 220.91 146.641 220.969 146.274 221.071C145.923 221.159 145.637 221.284 145.417 221.445C145.198 221.606 145.015 221.84 144.868 222.148C144.736 222.441 144.67 222.8 144.67 223.225V243H143.088V223.225C143.088 220.588 144.919 219.27 148.582 219.27C152.244 219.27 154.075 220.588 154.075 223.225ZM157.239 223.225V243H155.657V223.225C155.657 221.364 154.998 219.98 153.679 219.072C152.375 218.149 150.676 217.688 148.582 217.688C146.487 217.688 144.78 218.149 143.462 219.072C142.158 219.98 141.506 221.364 141.506 223.225V243H139.924V223.225C139.924 221.687 140.32 220.368 141.111 219.27C141.902 218.171 142.935 217.373 144.209 216.875C145.498 216.362 146.956 216.105 148.582 216.105C150.208 216.105 151.658 216.362 152.932 216.875C154.221 217.373 155.261 218.171 156.052 219.27C156.843 220.368 157.239 221.687 157.239 223.225ZM160.403 223.225V243H158.821V223.225C158.821 221.848 158.55 220.603 158.008 219.489C157.48 218.376 156.748 217.46 155.811 216.743C154.873 216.025 153.789 215.476 152.559 215.095C151.328 214.714 150.002 214.523 148.582 214.523C147.161 214.523 145.835 214.714 144.604 215.095C143.374 215.476 142.29 216.025 141.353 216.743C140.415 217.46 139.675 218.376 139.133 219.489C138.606 220.603 138.342 221.848 138.342 223.225V243H136.76V223.225C136.76 221.628 137.068 220.178 137.683 218.874C138.313 217.57 139.163 216.494 140.232 215.644C141.301 214.78 142.554 214.113 143.989 213.645C145.425 213.176 146.956 212.941 148.582 212.941C150.208 212.941 151.738 213.176 153.174 213.645C154.609 214.113 155.862 214.78 156.931 215.644C158 216.494 158.843 217.57 159.458 218.874C160.088 220.178 160.403 221.628 160.403 223.225ZM163.567 243H161.985V223.225C161.985 221.628 161.626 220.097 160.908 218.632C160.205 217.167 159.253 215.908 158.052 214.853C156.851 213.784 155.422 212.934 153.767 212.304C152.112 211.674 150.383 211.359 148.582 211.359C146.106 211.359 143.857 211.828 141.836 212.766C139.829 213.688 138.218 215.065 137.002 216.896C135.786 218.713 135.178 220.822 135.178 223.225V243H133.596V223.225C133.596 221.203 133.992 219.343 134.783 217.644C135.574 215.944 136.643 214.523 137.991 213.381C139.353 212.238 140.942 211.352 142.759 210.722C144.59 210.092 146.531 209.777 148.582 209.777C152.214 209.777 155.364 210.693 158.03 212.524C160.696 210.693 163.845 209.777 167.478 209.777C169.529 209.777 171.462 210.092 173.279 210.722C175.11 211.352 176.699 212.238 178.047 213.381C179.409 214.523 180.486 215.944 181.277 217.644C182.068 219.343 182.463 221.203 182.463 223.225V243H180.881V223.225C180.881 220.837 180.273 218.735 179.058 216.918C177.842 215.087 176.223 213.703 174.202 212.766C172.195 211.828 169.954 211.359 167.478 211.359C164.373 211.359 161.663 212.092 159.348 213.557C159.685 213.85 160.059 214.23 160.469 214.699C162.476 213.527 164.812 212.941 167.478 212.941C169.104 212.941 170.635 213.176 172.07 213.645C173.506 214.113 174.758 214.78 175.828 215.644C176.897 216.494 177.739 217.57 178.354 218.874C178.984 220.178 179.299 221.628 179.299 223.225V243H177.717V223.225C177.717 221.848 177.446 220.603 176.904 219.489C176.377 218.376 175.645 217.46 174.707 216.743C173.77 216.025 172.686 215.476 171.455 215.095C170.225 214.714 168.899 214.523 167.478 214.523C165.149 214.523 163.135 215 161.436 215.952C161.699 216.362 161.963 216.816 162.227 217.314C163.662 216.508 165.413 216.105 167.478 216.105C169.104 216.105 170.554 216.362 171.829 216.875C173.118 217.373 174.158 218.171 174.949 219.27C175.74 220.368 176.135 221.687 176.135 223.225V243H174.553V223.225C174.553 221.364 173.894 219.98 172.576 219.072C171.272 218.149 169.573 217.688 167.478 217.688C165.574 217.688 164.028 218.039 162.842 218.742C163.032 219.299 163.179 219.826 163.281 220.324C164.204 219.621 165.603 219.27 167.478 219.27C171.14 219.27 172.971 220.588 172.971 223.225V243H171.389V223.225C171.389 222.8 171.316 222.441 171.169 222.148C171.038 221.84 170.862 221.606 170.642 221.445C170.422 221.284 170.129 221.159 169.763 221.071C169.412 220.969 169.067 220.91 168.73 220.896C168.394 220.866 167.976 220.852 167.478 220.852C166.98 220.852 166.562 220.866 166.226 220.896C165.889 220.91 165.537 220.969 165.171 221.071C164.819 221.159 164.534 221.284 164.314 221.445C164.094 221.606 163.911 221.84 163.765 222.148C163.633 222.441 163.567 222.8 163.567 223.225V243ZM206.633 223.225V243H205.051V223.225C205.051 222.8 204.978 222.441 204.832 222.148C204.7 221.84 204.524 221.606 204.304 221.445C204.084 221.284 203.792 221.159 203.425 221.071C203.074 220.969 202.729 220.91 202.393 220.896C202.056 220.866 201.638 220.852 201.14 220.852C200.642 220.852 200.225 220.866 199.888 220.896C199.551 220.91 199.199 220.969 198.833 221.071C198.481 221.159 198.196 221.284 197.976 221.445C197.756 221.606 197.573 221.84 197.427 222.148C197.295 222.441 197.229 222.8 197.229 223.225V243H195.647V223.225C195.647 220.588 197.478 219.27 201.14 219.27C204.802 219.27 206.633 220.588 206.633 223.225ZM209.797 223.225V243H208.215V223.225C208.215 221.364 207.556 219.98 206.238 219.072C204.934 218.149 203.235 217.688 201.14 217.688C199.045 217.688 197.339 218.149 196.021 219.072C194.717 219.98 194.065 221.364 194.065 223.225V243H192.483V223.225C192.483 221.687 192.878 220.368 193.669 219.27C194.46 218.171 195.493 217.373 196.768 216.875C198.057 216.362 199.514 216.105 201.14 216.105C202.766 216.105 204.216 216.362 205.491 216.875C206.78 217.373 207.82 218.171 208.611 219.27C209.402 220.368 209.797 221.687 209.797 223.225ZM212.961 223.225V243H211.379V223.225C211.379 221.848 211.108 220.603 210.566 219.489C210.039 218.376 209.307 217.46 208.369 216.743C207.432 216.025 206.348 215.476 205.117 215.095C203.887 214.714 202.561 214.523 201.14 214.523C199.719 214.523 198.394 214.714 197.163 215.095C195.933 215.476 194.849 216.025 193.911 216.743C192.974 217.46 192.234 218.376 191.692 219.489C191.165 220.603 190.901 221.848 190.901 223.225V243H189.319V223.225C189.319 221.628 189.626 220.178 190.242 218.874C190.872 217.57 191.721 216.494 192.791 215.644C193.86 214.78 195.112 214.113 196.548 213.645C197.983 213.176 199.514 212.941 201.14 212.941C202.766 212.941 204.297 213.176 205.732 213.645C207.168 214.113 208.42 214.78 209.49 215.644C210.559 216.494 211.401 217.57 212.017 218.874C212.646 220.178 212.961 221.628 212.961 223.225ZM216.125 243H214.543V223.225C214.543 221.628 214.185 220.097 213.467 218.632C212.764 217.167 211.812 215.908 210.61 214.853C209.409 213.784 207.981 212.934 206.326 212.304C204.67 211.674 202.942 211.359 201.14 211.359C198.665 211.359 196.416 211.828 194.395 212.766C192.388 213.688 190.776 215.065 189.561 216.896C188.345 218.713 187.737 220.822 187.737 223.225V243H186.155V223.225C186.155 221.203 186.55 219.343 187.341 217.644C188.132 215.944 189.202 214.523 190.549 213.381C191.912 212.238 193.501 211.352 195.317 210.722C197.148 210.092 199.089 209.777 201.14 209.777C204.773 209.777 207.922 210.693 210.588 212.524C213.254 210.693 216.404 209.777 220.037 209.777C222.087 209.777 224.021 210.092 225.837 210.722C227.668 211.352 229.258 212.238 230.605 213.381C231.968 214.523 233.044 215.944 233.835 217.644C234.626 219.343 235.022 221.203 235.022 223.225V243H233.44V223.225C233.44 220.837 232.832 218.735 231.616 216.918C230.4 215.087 228.782 213.703 226.76 212.766C224.753 211.828 222.512 211.359 220.037 211.359C216.931 211.359 214.221 212.092 211.907 213.557C212.244 213.85 212.617 214.23 213.027 214.699C215.034 213.527 217.371 212.941 220.037 212.941C221.663 212.941 223.193 213.176 224.629 213.645C226.064 214.113 227.317 214.78 228.386 215.644C229.456 216.494 230.298 217.57 230.913 218.874C231.543 220.178 231.858 221.628 231.858 223.225V243H230.276V223.225C230.276 221.848 230.005 220.603 229.463 219.489C228.936 218.376 228.203 217.46 227.266 216.743C226.328 216.025 225.244 215.476 224.014 215.095C222.783 214.714 221.458 214.523 220.037 214.523C217.708 214.523 215.693 215 213.994 215.952C214.258 216.362 214.521 216.816 214.785 217.314C216.221 216.508 217.971 216.105 220.037 216.105C221.663 216.105 223.113 216.362 224.387 216.875C225.676 217.373 226.716 218.171 227.507 219.27C228.298 220.368 228.694 221.687 228.694 223.225V243H227.112V223.225C227.112 221.364 226.453 219.98 225.134 219.072C223.831 218.149 222.131 217.688 220.037 217.688C218.132 217.688 216.587 218.039 215.4 218.742C215.591 219.299 215.737 219.826 215.84 220.324C216.763 219.621 218.162 219.27 220.037 219.27C223.699 219.27 225.53 220.588 225.53 223.225V243H223.948V223.225C223.948 222.8 223.875 222.441 223.728 222.148C223.596 221.84 223.42 221.606 223.201 221.445C222.981 221.284 222.688 221.159 222.322 221.071C221.97 220.969 221.626 220.91 221.289 220.896C220.952 220.866 220.535 220.852 220.037 220.852C219.539 220.852 219.121 220.866 218.784 220.896C218.447 220.91 218.096 220.969 217.729 221.071C217.378 221.159 217.092 221.284 216.873 221.445C216.653 221.606 216.47 221.84 216.323 222.148C216.191 222.441 216.125 222.8 216.125 223.225V243ZM261.433 227.399C261.433 225.524 260.854 224.074 259.697 223.049C258.54 222.023 257.009 221.511 255.105 221.511C253.494 221.511 252.109 222.067 250.952 223.181C249.795 224.294 249.216 225.627 249.216 227.18C249.216 228.059 249.333 228.85 249.568 229.553C249.802 230.241 250.117 230.82 250.513 231.289C250.923 231.743 251.406 232.124 251.963 232.431C252.52 232.724 253.098 232.937 253.699 233.068C254.314 233.2 254.966 233.266 255.654 233.266C257.324 233.266 258.848 232.856 260.225 232.036V233.618C258.804 234.365 257.273 234.738 255.632 234.738C254.578 234.738 253.582 234.599 252.644 234.321C251.721 234.028 250.879 233.596 250.117 233.024C249.355 232.438 248.748 231.647 248.293 230.651C247.854 229.641 247.634 228.483 247.634 227.18C247.634 225.158 248.345 223.444 249.766 222.038C251.187 220.632 252.966 219.929 255.105 219.929C257.463 219.929 259.368 220.595 260.818 221.928C262.283 223.247 263.015 225.07 263.015 227.399V243H261.433V227.399ZM266.179 227.399V243H264.597V227.399C264.597 224.631 263.711 222.434 261.938 220.808C260.166 219.167 257.888 218.347 255.105 218.347C252.527 218.347 250.374 219.204 248.645 220.917C246.917 222.631 246.052 224.719 246.052 227.18C246.052 228.674 246.309 230.014 246.821 231.201C247.349 232.387 248.059 233.339 248.953 234.057C249.846 234.775 250.842 235.324 251.941 235.705C253.054 236.071 254.226 236.254 255.457 236.254C257.126 236.254 258.716 235.866 260.225 235.09V236.76C258.643 237.419 257.046 237.749 255.435 237.749C253.984 237.749 252.607 237.529 251.304 237.089C250 236.635 248.835 235.983 247.81 235.134C246.785 234.27 245.972 233.156 245.371 231.794C244.771 230.417 244.47 228.879 244.47 227.18C244.47 224.294 245.488 221.84 247.524 219.819C249.575 217.783 252.102 216.765 255.105 216.765C257.214 216.765 259.104 217.197 260.774 218.061C262.444 218.911 263.762 220.148 264.729 221.774C265.696 223.4 266.179 225.275 266.179 227.399ZM269.343 227.399V243H267.761V227.399C267.761 224.982 267.205 222.844 266.091 220.983C264.993 219.108 263.484 217.673 261.565 216.677C259.646 215.681 257.493 215.183 255.105 215.183C252.834 215.183 250.762 215.725 248.887 216.809C247.012 217.878 245.54 219.328 244.47 221.159C243.416 222.99 242.888 224.997 242.888 227.18C242.888 229.055 243.232 230.769 243.921 232.321C244.609 233.859 245.532 235.126 246.689 236.123C247.861 237.119 249.187 237.895 250.667 238.452C252.161 238.994 253.721 239.265 255.347 239.265C257.002 239.265 258.628 238.92 260.225 238.232V239.836C258.555 240.466 256.914 240.781 255.303 240.781C252.769 240.781 250.439 240.209 248.315 239.067C246.191 237.924 244.492 236.306 243.218 234.211C241.943 232.116 241.306 229.772 241.306 227.18C241.306 225.334 241.658 223.576 242.361 221.906C243.079 220.236 244.045 218.793 245.261 217.578C246.477 216.362 247.942 215.395 249.656 214.677C251.37 213.959 253.186 213.601 255.105 213.601C257.786 213.601 260.203 214.172 262.356 215.314C264.524 216.457 266.23 218.083 267.476 220.192C268.721 222.302 269.343 224.704 269.343 227.399ZM272.507 227.399V243H270.925V227.399C270.925 224.411 270.229 221.745 268.838 219.401C267.446 217.043 265.549 215.227 263.147 213.952C260.745 212.663 258.064 212.019 255.105 212.019C252.263 212.019 249.663 212.7 247.305 214.062C244.946 215.424 243.093 217.27 241.746 219.599C240.398 221.914 239.724 224.44 239.724 227.18C239.724 228.981 240.01 230.695 240.581 232.321C241.167 233.933 241.958 235.346 242.954 236.562C243.965 237.763 245.122 238.803 246.426 239.682C247.744 240.561 249.158 241.228 250.667 241.682C252.19 242.136 253.735 242.363 255.303 242.363C257.031 242.363 258.672 242.033 260.225 241.374V243C258.599 243.571 256.929 243.857 255.215 243.857C253.442 243.857 251.714 243.608 250.029 243.11C248.359 242.612 246.807 241.879 245.371 240.913C243.95 239.931 242.698 238.781 241.614 237.463C240.53 236.13 239.68 234.577 239.065 232.805C238.45 231.032 238.142 229.157 238.142 227.18C238.142 224.909 238.567 222.749 239.417 220.698C240.281 218.632 241.453 216.853 242.932 215.358C244.426 213.85 246.228 212.656 248.337 211.777C250.461 210.883 252.717 210.437 255.105 210.437C257.537 210.437 259.822 210.847 261.96 211.667C264.099 212.487 265.945 213.63 267.498 215.095C269.05 216.545 270.273 218.332 271.167 220.456C272.061 222.58 272.507 224.895 272.507 227.399ZM276.418 211.359H278V243H276.418V211.359ZM285.911 211.359H287.493V235.09H299.16V236.672H287.493V238.254H299.16V239.836H287.493V241.418H299.16V243H285.911V211.359ZM282.747 211.359H284.329V243H282.747V211.359ZM279.583 211.359H281.165V243H279.583V211.359ZM312.146 211.359H313.728V243H312.146V211.359ZM308.982 211.359H310.564V243H308.982V211.359ZM305.818 211.359H307.4V243H305.818V211.359ZM302.654 211.359H304.236V243H302.654V211.359ZM342.82 230.234L341.238 227.355V211.359H342.82V230.234ZM345.984 235.705L344.402 233.024V211.359H345.984V235.705ZM324.187 224.125L325.769 227.004V243H324.187V224.125ZM321.023 218.435L322.605 221.335V243H321.023V218.435ZM321.572 211.359H323.418L341.743 243H339.897L321.572 211.359ZM325.308 211.359H327.175L345.479 243H343.589L325.308 211.359ZM329.021 211.359H330.867L347.566 240.253V211.359H349.148V243H347.28L329.021 211.359ZM319.441 214.084V243H317.859V211.359H319.749L338.008 243H336.184L319.441 214.084ZM361.189 243H359.607V211.359H361.189V243ZM358.025 243H356.443V211.359H358.025V243ZM354.861 243H353.279V211.359H354.861V243ZM364.353 235.09H379.492V236.672H364.353V238.254H379.492V239.836H364.353V241.418H379.492V243H362.771V211.359H379.492V212.941H364.353V214.523H379.492V216.105H364.353V217.688H379.492V219.27H364.353V223.203H378.613V224.785H364.353V226.367H378.613V227.949H364.353V229.531H378.613V231.113H364.353V235.09ZM128.235 299.729L129.817 296.74V313H128.235V299.729ZM131.399 293.664L132.981 290.676V313H131.399V293.664ZM134.563 287.688L136.145 284.677V313H134.563V287.688ZM123.95 298.981L123.049 297.333L133.948 276.613H135.728L123.95 298.981ZM122.126 295.532L121.204 293.862L130.344 276.613H132.146L122.126 295.532ZM111.536 296.916L113.118 299.904V313H111.536V296.916ZM108.372 290.896L109.954 293.884V313H108.372V290.896ZM105.208 284.875L106.79 287.885V313H105.208V284.875ZM117.996 303.508H116.216L103.625 279.624V313H102.043V276.613H103.823L117.996 303.508ZM121.577 303.508H119.775L105.625 276.613H107.427L121.577 303.508ZM137.727 279.624L125.137 303.508H123.335L109.207 276.613H110.986L124.258 301.838L137.507 276.613H139.309V313H137.727V279.624ZM151.394 313H149.812V281.359H151.394V313ZM148.23 313H146.648V281.359H148.23V313ZM145.066 313H143.484V281.359H145.066V313ZM154.558 305.09H169.697V306.672H154.558V308.254H169.697V309.836H154.558V311.418H169.697V313H152.976V281.359H169.697V282.941H154.558V284.523H169.697V286.105H154.558V287.688H169.697V289.27H154.558V293.203H168.818V294.785H154.558V296.367H168.818V297.949H154.558V299.531H168.818V301.113H154.558V305.09ZM185.452 297.883H194.988C196.248 297.883 197.317 297.487 198.196 296.696C199.075 295.905 199.514 294.792 199.514 293.356C199.514 292.302 199.053 291.357 198.13 290.522C197.222 289.687 196.174 289.27 194.988 289.27H181.409V313H179.827V287.688H194.988C196.614 287.688 198.035 288.259 199.25 289.401C200.481 290.544 201.096 291.862 201.096 293.356C201.096 295.217 200.503 296.704 199.316 297.817C198.13 298.916 196.687 299.465 194.988 299.465H185.452V297.883ZM185.452 301.047H194.988C197.097 301.047 198.906 300.329 200.415 298.894C201.924 297.458 202.678 295.612 202.678 293.356C202.678 291.438 201.909 289.753 200.371 288.303C198.833 286.838 197.039 286.105 194.988 286.105H178.245V313H176.663V284.523H194.988C197.478 284.523 199.646 285.41 201.492 287.182C203.337 288.94 204.26 290.998 204.26 293.356C204.26 295.993 203.345 298.198 201.514 299.97C199.697 301.743 197.522 302.629 194.988 302.629H185.452V301.047ZM185.452 304.211H194.988C196.936 304.211 198.738 303.742 200.393 302.805C202.048 301.867 203.367 300.563 204.348 298.894C205.344 297.224 205.842 295.378 205.842 293.356C205.842 291.525 205.352 289.812 204.37 288.215C203.389 286.604 202.056 285.322 200.371 284.37C198.701 283.417 196.907 282.941 194.988 282.941H175.081V313H173.499V281.359H194.988C196.643 281.359 198.232 281.689 199.756 282.348C201.294 282.993 202.62 283.857 203.733 284.941C204.846 286.01 205.74 287.285 206.414 288.764C207.087 290.244 207.424 291.774 207.424 293.356C207.424 295.92 206.838 298.161 205.667 300.08C204.495 301.984 202.92 303.435 200.942 304.431L204.26 313H202.568L199.426 305.068C199.031 305.2 198.569 305.332 198.042 305.463L201.008 313H199.316L196.416 305.727C195.962 305.771 195.486 305.793 194.988 305.793L197.778 313H196.108L193.34 305.793H191.912L194.57 313H192.9L190.22 305.793H185.452V304.211ZM184.573 313H182.991V290.852H194.988C195.808 290.852 196.504 291.101 197.075 291.599C197.646 292.082 197.932 292.668 197.932 293.356C197.932 295.319 196.951 296.301 194.988 296.301H185.452V294.719H194.988C195.896 294.719 196.35 294.265 196.35 293.356C196.35 293.107 196.211 292.895 195.933 292.719C195.669 292.529 195.354 292.434 194.988 292.434H184.573V313ZM233.704 292.258L232.429 293.225C231.155 291.643 229.514 290.852 227.507 290.852C225.764 290.852 224.27 291.474 223.025 292.719C221.794 293.95 221.179 295.437 221.179 297.18C221.179 298.923 221.794 300.417 223.025 301.662C224.27 302.893 225.764 303.508 227.507 303.508C228.489 303.508 229.404 303.295 230.254 302.871C231.118 302.446 231.851 301.86 232.451 301.113L233.682 302.146C232.949 303.068 232.041 303.793 230.957 304.321C229.873 304.833 228.723 305.09 227.507 305.09C225.325 305.09 223.457 304.321 221.904 302.783C220.366 301.23 219.597 299.362 219.597 297.18C219.597 294.997 220.366 293.137 221.904 291.599C223.457 290.046 225.325 289.27 227.507 289.27C228.738 289.27 229.895 289.541 230.979 290.083C232.063 290.61 232.971 291.335 233.704 292.258ZM236.165 290.28L234.912 291.247C234.033 290.134 232.942 289.262 231.638 288.632C230.349 288.002 228.972 287.688 227.507 287.688C224.885 287.688 222.644 288.618 220.784 290.478C218.938 292.338 218.015 294.572 218.015 297.18C218.015 299.787 218.938 302.021 220.784 303.881C222.644 305.742 224.885 306.672 227.507 306.672C228.972 306.672 230.356 306.357 231.66 305.727C232.964 305.083 234.055 304.204 234.934 303.09L236.143 304.101C235.117 305.39 233.85 306.408 232.341 307.155C230.833 307.888 229.221 308.254 227.507 308.254C225.5 308.254 223.647 307.763 221.948 306.782C220.249 305.786 218.901 304.438 217.905 302.739C216.924 301.04 216.433 299.187 216.433 297.18C216.433 295.173 216.924 293.32 217.905 291.621C218.901 289.921 220.249 288.581 221.948 287.6C223.647 286.604 225.5 286.105 227.507 286.105C229.221 286.105 230.833 286.479 232.341 287.226C233.865 287.958 235.139 288.977 236.165 290.28ZM238.647 288.303L237.417 289.292C236.23 287.812 234.773 286.647 233.044 285.798C231.316 284.948 229.47 284.523 227.507 284.523C225.793 284.523 224.153 284.86 222.585 285.534C221.033 286.193 219.685 287.094 218.542 288.237C217.415 289.365 216.514 290.712 215.84 292.28C215.181 293.833 214.851 295.466 214.851 297.18C214.851 298.894 215.181 300.534 215.84 302.102C216.514 303.654 217.415 305.002 218.542 306.145C219.685 307.272 221.033 308.173 222.585 308.847C224.153 309.506 225.793 309.836 227.507 309.836C229.47 309.836 231.316 309.411 233.044 308.562C234.773 307.712 236.23 306.547 237.417 305.068L238.604 306.101C237.271 307.756 235.637 309.06 233.704 310.012C231.77 310.949 229.705 311.418 227.507 311.418C225.574 311.418 223.728 311.044 221.97 310.297C220.212 309.536 218.696 308.525 217.422 307.265C216.162 305.991 215.151 304.475 214.39 302.717C213.643 300.959 213.269 299.113 213.269 297.18C213.269 295.246 213.643 293.4 214.39 291.643C215.151 289.885 216.162 288.376 217.422 287.116C218.696 285.842 220.212 284.831 221.97 284.084C223.728 283.322 225.574 282.941 227.507 282.941C229.719 282.941 231.792 283.417 233.726 284.37C235.674 285.322 237.314 286.633 238.647 288.303ZM241.108 286.325L239.834 287.27C238.354 285.439 236.538 283.996 234.385 282.941C232.246 281.887 229.954 281.359 227.507 281.359C225.369 281.359 223.318 281.777 221.355 282.612C219.407 283.447 217.722 284.575 216.301 285.996C214.895 287.402 213.774 289.086 212.939 291.049C212.104 292.998 211.687 295.041 211.687 297.18C211.687 299.318 212.104 301.369 212.939 303.332C213.774 305.28 214.895 306.965 216.301 308.386C217.722 309.792 219.407 310.913 221.355 311.748C223.318 312.583 225.369 313 227.507 313C229.954 313 232.246 312.473 234.385 311.418C236.538 310.363 238.354 308.92 239.834 307.089L241.086 308.056C239.46 310.078 237.461 311.674 235.088 312.846C232.729 314.003 230.203 314.582 227.507 314.582C225.149 314.582 222.893 314.121 220.74 313.198C218.601 312.275 216.755 311.037 215.203 309.484C213.65 307.932 212.412 306.086 211.489 303.947C210.566 301.794 210.105 299.538 210.105 297.18C210.105 294.821 210.566 292.573 211.489 290.434C212.412 288.281 213.65 286.428 215.203 284.875C216.755 283.322 218.601 282.084 220.74 281.162C222.893 280.239 225.149 279.777 227.507 279.777C230.203 279.777 232.737 280.363 235.11 281.535C237.483 282.692 239.482 284.289 241.108 286.325ZM252.029 313H250.447V281.359H252.029V313ZM248.865 313H247.283V281.359H248.865V313ZM245.701 313H244.119V281.359H245.701V313ZM255.193 305.09H270.332V306.672H255.193V308.254H270.332V309.836H255.193V311.418H270.332V313H253.611V281.359H270.332V282.941H255.193V284.523H270.332V286.105H255.193V287.688H270.332V289.27H255.193V293.203H269.453V294.785H255.193V296.367H269.453V297.949H255.193V299.531H269.453V301.113H255.193V305.09ZM286.086 297.883H295.623C296.882 297.883 297.952 297.487 298.831 296.696C299.709 295.905 300.149 294.792 300.149 293.356C300.149 292.302 299.688 291.357 298.765 290.522C297.856 289.687 296.809 289.27 295.623 289.27H282.043V313H280.461V287.688H295.623C297.249 287.688 298.669 288.259 299.885 289.401C301.116 290.544 301.731 291.862 301.731 293.356C301.731 295.217 301.138 296.704 299.951 297.817C298.765 298.916 297.322 299.465 295.623 299.465H286.086V297.883ZM286.086 301.047H295.623C297.732 301.047 299.541 300.329 301.05 298.894C302.559 297.458 303.313 295.612 303.313 293.356C303.313 291.438 302.544 289.753 301.006 288.303C299.468 286.838 297.673 286.105 295.623 286.105H278.879V313H277.297V284.523H295.623C298.113 284.523 300.281 285.41 302.126 287.182C303.972 288.94 304.895 290.998 304.895 293.356C304.895 295.993 303.979 298.198 302.148 299.97C300.332 301.743 298.157 302.629 295.623 302.629H286.086V301.047ZM286.086 304.211H295.623C297.571 304.211 299.373 303.742 301.028 302.805C302.683 301.867 304.001 300.563 304.983 298.894C305.979 297.224 306.477 295.378 306.477 293.356C306.477 291.525 305.986 289.812 305.005 288.215C304.023 286.604 302.69 285.322 301.006 284.37C299.336 283.417 297.542 282.941 295.623 282.941H275.715V313H274.133V281.359H295.623C297.278 281.359 298.867 281.689 300.391 282.348C301.929 282.993 303.254 283.857 304.368 284.941C305.481 286.01 306.375 287.285 307.048 288.764C307.722 290.244 308.059 291.774 308.059 293.356C308.059 295.92 307.473 298.161 306.301 300.08C305.129 301.984 303.555 303.435 301.577 304.431L304.895 313H303.203L300.061 305.068C299.666 305.2 299.204 305.332 298.677 305.463L301.643 313H299.951L297.051 305.727C296.597 305.771 296.121 305.793 295.623 305.793L298.413 313H296.743L293.975 305.793H292.546L295.205 313H293.535L290.854 305.793H286.086V304.211ZM285.208 313H283.625V290.852H295.623C296.443 290.852 297.139 291.101 297.71 291.599C298.281 292.082 298.567 292.668 298.567 293.356C298.567 295.319 297.585 296.301 295.623 296.301H286.086V294.719H295.623C296.531 294.719 296.985 294.265 296.985 293.356C296.985 293.107 296.846 292.895 296.567 292.719C296.304 292.529 295.989 292.434 295.623 292.434H285.208V313Z" fill="white"/>
<path d="M851.905 567.553C844.702 593.224 818.562 607.75 793.741 600.4C768.92 593.051 754.317 566.462 761.52 540.791C768.723 515.121 794.863 500.595 819.684 507.944C844.505 515.294 859.108 541.883 851.905 567.553Z" fill="#EF8A17"/>
<path d="M851.905 567.553C844.702 593.224 818.562 607.75 793.741 600.4C768.92 593.051 754.317 566.462 761.52 540.791C768.723 515.121 794.863 500.595 819.684 507.944C844.505 515.294 859.108 541.883 851.905 567.553Z" stroke="#A63A50" stroke-width="20"/>
<path d="M851.905 567.553C844.702 593.224 818.562 607.75 793.741 600.4C768.92 593.051 754.317 566.462 761.52 540.791C768.723 515.121 794.863 500.595 819.684 507.944C844.505 515.294 859.108 541.883 851.905 567.553Z" stroke="#6C493F" stroke-width="20"/>
<path d="M895.124 432.146C885.771 465.477 851.41 484.5 818.429 474.735C785.449 464.97 766.216 430.078 775.568 396.747C784.921 363.416 819.283 344.393 852.263 354.158C885.243 363.923 904.476 398.816 895.124 432.146Z" fill="#A63A50"/>
<path d="M895.124 432.146C885.771 465.477 851.41 484.5 818.429 474.735C785.449 464.97 766.216 430.078 775.568 396.747C784.921 363.416 819.283 344.393 852.263 354.158C885.243 363.923 904.476 398.816 895.124 432.146Z" stroke="#A63A50" stroke-width="20"/>
<path d="M895.124 432.146C885.771 465.477 851.41 484.5 818.429 474.735C785.449 464.97 766.216 430.078 775.568 396.747C784.921 363.416 819.283 344.393 852.263 354.158C885.243 363.923 904.476 398.816 895.124 432.146Z" stroke="#EF8A17" stroke-width="20"/>
<path d="M418.23 412.671C418.23 449.828 386.465 480.768 346.247 480.768C306.029 480.768 274.264 449.828 274.264 412.671C274.264 375.514 306.029 344.574 346.247 344.574C386.465 344.574 418.23 375.514 418.23 412.671Z" fill="#F8F1D7" stroke="#EF8A17" stroke-width="20"/>
<path d="M757.751 574.074C749.218 604.482 716.922 622.074 685.237 612.692C653.551 603.311 635.325 570.759 643.858 540.352C652.39 509.944 684.686 492.352 716.372 501.734C748.057 511.115 766.283 543.667 757.751 574.074Z" fill="#F8F1D7" stroke="#EF8A17" stroke-width="20"/>
<path d="M504.574 342.118C504.574 363.472 487.607 380.484 467.041 380.484C446.476 380.484 429.509 363.472 429.509 342.118C429.509 320.763 446.476 303.751 467.041 303.751C487.607 303.751 504.574 320.763 504.574 342.118Z" fill="#F8F1D7" stroke="#6C493F" stroke-width="20"/>
<path d="M879.404 501.083C874.544 518.403 857.454 527.828 841.803 523.194C826.153 518.56 816.569 501.237 821.428 483.917C826.288 466.597 843.379 457.172 859.029 461.806C874.679 466.44 884.264 483.763 879.404 501.083Z" fill="#F8F1D7" stroke="#A63A50" stroke-width="20"/>
<path d="M799.322 310.327C794.462 327.647 777.371 337.072 761.721 332.438C746.071 327.805 736.486 310.481 741.346 293.161C746.206 275.841 763.296 266.416 778.947 271.05C794.597 275.684 804.181 293.007 799.322 310.327Z" fill="#F8F1D7" stroke="#6C493F" stroke-width="20"/>
<path d="M528.529 213.435C528.529 233.776 511.738 250.265 491.026 250.265C470.314 250.265 453.523 233.776 453.523 213.435C453.523 193.095 470.314 176.605 491.026 176.605C511.738 176.605 528.529 193.095 528.529 213.435Z" fill="#A63A50"/>
<path d="M373.75 413.115C373.75 427.872 361.692 439.944 346.683 439.944C331.674 439.944 319.616 427.872 319.616 413.115C319.616 398.357 331.674 386.285 346.683 386.285C361.692 386.285 373.75 398.357 373.75 413.115Z" fill="#EF8A17" stroke="#A63A50" stroke-width="20"/>
<path d="M725 557.5C725 570.479 714.479 581 701.5 581C688.521 581 678 570.479 678 557.5C678 544.521 688.521 534 701.5 534C714.479 534 725 544.521 725 557.5Z" fill="#EF8A17" stroke="#A63A50" stroke-width="20"/>
<path d="M516.051 384.618C516.051 398.78 504.609 410.235 490.526 410.235C476.442 410.235 465 398.78 465 384.618C465 370.455 476.442 359 490.526 359C504.609 359 516.051 370.455 516.051 384.618Z" fill="#EF8A17" stroke="#A63A50" stroke-width="10"/>
<path d="M898.928 371.649C895.685 383.205 884.056 389.677 873.137 386.444C862.218 383.211 855.726 371.374 858.969 359.818C862.211 348.262 873.841 341.789 884.76 345.022C895.678 348.255 902.17 360.093 898.928 371.649Z" fill="#EF8A17" stroke="#F8F1D7" stroke-width="10"/>
<path d="M743.009 623.453C739.767 635.009 728.137 641.481 717.218 638.249C706.3 635.016 699.808 623.178 703.05 611.622C706.293 600.066 717.923 593.594 728.841 596.826C739.76 600.059 746.252 611.897 743.009 623.453Z" fill="#6C493F" stroke="#F8F1D7" stroke-width="10"/>
<path d="M291.767 568.865C291.767 592.882 271.424 613 245.513 613C219.602 613 199.259 592.882 199.259 568.865C199.259 544.848 219.602 524.729 245.513 524.729C271.424 524.729 291.767 544.848 291.767 568.865Z" fill="#EF8A17" stroke="#F8F1D7" stroke-width="20"/>
</svg>
